<?xml version="1.0" encoding="iso-8859-1"?>
<!-- Generator: Adobe Illustrator 19.0.0, SVG Export Plug-In . SVG Version: 6.00 Build 0)  -->
<svg version="1.1" id="Capa_1" xmlns="http://www.w3.org/2000/svg" xmlns:xlink="http://www.w3.org/1999/xlink" x="0px" y="0px"
	 viewBox="0 0 496 496" style="enable-background:new 0 0 496 496;" xml:space="preserve">
<g>
	<g>
		<g>
			<path d="M461.792,160c1.448-7.976,2.208-16.088,2.208-24.216C464,60.912,403.088,0,327.784,0C252.912,0,192,60.912,192,135.784
				c0,8.128,0.76,16.24,2.208,24.216H0v336h496V160H461.792z M328.216,16C394.264,16,448,69.736,448,135.784
				c0,19.76-4.952,39.4-14.32,56.8L344.536,358.12c-3.28,6.088-9.616,9.88-16.536,9.88c-6.92,0-13.256-3.792-16.536-9.872
				L222.32,192.576c-9.368-17.4-14.32-37.04-14.32-56.8C208,69.736,261.736,16,328.216,16z M272.76,320H224v-90.552L272.76,320z
				 M16,176h96v80H16V176z M112,480H16V368h96V480z M480,416h-16.008v16H480v48H224v-48h224v-16H208v64h-80V352H16v-80h112v-96
				h70.136c2.568,8.288,5.904,16.336,10.016,24H208v136h73.376l16,29.712C303.456,376.992,315.184,384,328,384
				c12.816,0,24.544-7.008,30.632-18.296L374.624,336H480V416z M480,320h-96.76l64.528-119.84
				c4.152-7.712,7.512-15.816,10.096-24.16H480V320z"/>
			<path d="M328,240c57.344,0,104-46.656,104-104S385.344,32,328,32S224,78.656,224,136S270.656,240,328,240z M328,48
				c48.52,0,88,39.48,88,88s-39.48,88-88,88c-48.52,0-88-39.48-88-88S279.48,48,328,48z"/>
			<path d="M392,91.056L337.888,64h-19.784L264,91.056V112h128V91.056z M289.888,96l32-16h12.216l32,16H289.888z"/>
			<polygon points="296,176 288,176 288,136 296,136 296,120 264,120 264,136 272,136 272,176 264,176 264,192 296,192 			"/>
			<polygon points="360,136 368,136 368,176 360,176 360,192 392,192 392,176 384,176 384,136 392,136 392,120 360,120 			"/>
			<polygon points="312,136 320,136 320,176 312,176 312,192 344,192 344,176 336,176 336,136 344,136 344,120 312,120 			"/>
		</g>
	</g>
</g>
<g>
</g>
<g>
</g>
<g>
</g>
<g>
</g>
<g>
</g>
<g>
</g>
<g>
</g>
<g>
</g>
<g>
</g>
<g>
</g>
<g>
</g>
<g>
</g>
<g>
</g>
<g>
</g>
<g>
</g>
</svg>
