<svg id="Layer_1" data-name="Layer 1" xmlns="http://www.w3.org/2000/svg" width="38" height="38" viewBox="0 0 32 32">
<defs><style>.cls-1{fill:black;fill-rule:evenodd;}</style></defs>
<title>tuberlin</title>
<path class="cls-1" d="M27.74,14.81l.08-.85H26.44c-.39,0-.55-.18-.53-.4a.84.84,0,0,1,0-.14H24.86c0,.32.14.52.49.58h-.47l-.07.79ZM28,12.38h-4l-.08.84h4Zm-3-1.13H24l-.09.85h.92Zm3.15,0h-2.9l-.09.85H28Zm-4.82,8.81h2.48a1.48,1.48,0,0,0,1.64-1.29c.06-.65-.43-1.24-1.43-1.24-.74,0-1.53.47-1.6,1.12a.77.77,0,0,0,.13.53H23.34Zm3-4.86a1,1,0,0,1,.41.8.59.59,0,0,1-.07.25l-1-1.22a1.39,1.39,0,0,0-1,1.15c-.06.67.47,1.22,1.46,1.22a1.51,1.51,0,0,0,1.58-1.26,1.4,1.4,0,0,0-.26-1Zm-1.08-4.32h2.9l.09-.86H26.5c-.13,0-.35,0-.35-.22s.18-.23.3-.23h1.81l.08-.86H26.42c-.56,0-1.08.21-1.12.66a.75.75,0,0,0,.39.66v0H25.3Zm-3-2.79H28.9L27.66,20.88a7,7,0,0,1-7.06,6.68h-.32Zm3.65,11.1c-.24,0-.44-.14-.42-.35a.45.45,0,0,1,.49-.35c.24,0,.44.14.42.35A.45.45,0,0,1,25.83,19.18Zm.29-2.66a.47.47,0,0,1-.21,0c-.25,0-.48-.15-.46-.37a.32.32,0,0,1,.17-.28Z"/><path class="cls-1" d="M21.22,9.94,19.51,27.49c-3.8-.66-6.37-2.6-6-6.24h0l.82-8.38h-11a3.27,3.27,0,1,1,0-6.54H17.94a3.29,3.29,0,0,1,3.3,3.27,3.4,3.4,0,0,1,0,.35"/><polygon class="cls-1" points="6.74 13.58 12.78 13.58 11.59 25.81 5.54 25.81 6.74 13.58"/></svg>
